<svg id="レイヤー_1" data-name="レイヤー 1" xmlns="http://www.w3.org/2000/svg" viewBox="0 0 800 800"><defs><style>.cls-1{fill:#ce2aff;}.cls-2{fill:#cd2bff;}.cls-3{fill:#cb2cff;}.cls-4{fill:#ca2dff;}.cls-5{fill:#c82eff;}.cls-6{fill:#c72fff;}.cls-7{fill:#c530ff;}.cls-8{fill:#c431ff;}.cls-9{fill:#c232ff;}.cls-10{fill:#c133ff;}.cls-11{fill:#bf34ff;}.cls-12{fill:#be35ff;}.cls-13{fill:#bc36ff;}.cls-14{fill:#bb37ff;}.cls-15{fill:#ba38ff;}.cls-16{fill:#b839ff;}.cls-17{fill:#b73aff;}.cls-18{fill:#b53bff;}.cls-19{fill:#b43cff;}.cls-20{fill:#b33dff;}.cls-21{fill:#b13eff;}.cls-22{fill:#b03ffe;}.cls-23{fill:#ae40fe;}.cls-24{fill:#ad41fe;}.cls-25{fill:#ac42fe;}.cls-26{fill:#aa43fe;}.cls-27{fill:#a944fe;}.cls-28{fill:#a745fe;}.cls-29{fill:#a646fe;}.cls-30{fill:#a547fe;}.cls-31{fill:#a348fe;}.cls-32{fill:#a249fe;}.cls-33{fill:#a14afe;}.cls-34{fill:#9f4bfe;}.cls-35{fill:#9e4cfe;}.cls-36{fill:#9d4dfe;}.cls-37{fill:#9b4efe;}.cls-38{fill:#9a4ffe;}.cls-39{fill:#9950fe;}.cls-40{fill:#9751fe;}.cls-41{fill:#9652fe;}.cls-42{fill:#9553fe;}.cls-43{fill:#9353fe;}.cls-44{fill:#9254fe;}.cls-45{fill:#9155fe;}.cls-46{fill:#8f56fe;}.cls-47{fill:#8e57fe;}.cls-48{fill:#8d58fe;}.cls-49{fill:#8c59fe;}.cls-50{fill:#8a5afe;}.cls-51{fill:#895bfe;}.cls-52{fill:#885cfe;}.cls-53{fill:#875cfe;}.cls-54{fill:#855dfe;}.cls-55{fill:#845efe;}.cls-56{fill:#835ffe;}.cls-57{fill:#8260fe;}.cls-58{fill:#8061fe;}.cls-59{fill:#7f62fe;}.cls-60{fill:#7e63fe;}.cls-61{fill:#7d63fe;}.cls-62{fill:#7b64fe;}.cls-63{fill:#7a65fe;}.cls-64{fill:#7966fe;}.cls-65{fill:#7867fe;}.cls-66{fill:#7768fe;}.cls-67{fill:#7569fd;}.cls-68{fill:#7469fd;}.cls-69{fill:#736afd;}.cls-70{fill:#726bfd;}.cls-71{fill:#716cfd;}.cls-72{fill:#706dfd;}.cls-73{fill:#6e6efd;}.cls-74{fill:#6d6efd;}.cls-75{fill:#6c6ffd;}.cls-76{fill:#6b70fd;}.cls-77{fill:#6a71fd;}.cls-78{fill:#6972fd;}.cls-79{fill:#6872fd;}.cls-80{fill:#6673fd;}.cls-81{fill:#6574fd;}.cls-82{fill:#6475fd;}.cls-83{fill:#6376fd;}.cls-84{fill:#6276fd;}.cls-85{fill:#6177fd;}.cls-86{fill:#6078fd;}.cls-87{fill:#5f79fd;}.cls-88{fill:#5e79fd;}.cls-89{fill:#5d7afd;}.cls-90{fill:#5b7bfd;}.cls-91{fill:#5a7cfd;}.cls-92{fill:#597cfd;}.cls-93{fill:#587dfd;}.cls-94{fill:#577efd;}.cls-95{fill:#567ffd;}.cls-96{fill:#557ffd;}.cls-97{fill:#5480fd;}.cls-98{fill:#5381fd;}.cls-99{fill:#5281fd;}.cls-100{fill:#5182fd;}.cls-101{fill:#5083fd;}.cls-102{fill:#4f84fd;}.cls-103{fill:#4e84fd;}.cls-104{fill:#4d85fd;}.cls-105{fill:#4c86fd;}.cls-106{fill:#4b86fd;}.cls-107{fill:#4a87fd;}.cls-108{fill:#4988fd;}.cls-109{fill:#4888fd;}.cls-110{fill:#4789fd;}.cls-111{fill:#478afd;}.cls-112{fill:#468afd;}.cls-113{fill:#458bfd;}.cls-114{fill:#448cfd;}</style></defs><title>アートボード 1</title><path class="cls-1" d="M264.57,206.75l.47.37,14-14A64.3,64.3,0,0,0,264.57,206.75Z"/><path class="cls-1" d="M223.84,227l8.08,13.23,20.19-20.19A49.33,49.33,0,0,0,223.84,227Z"/><path class="cls-2" d="M268.62,209.93l23.74-23.74A65.18,65.18,0,0,0,279,193.14l-14,14Z"/><path class="cls-2" d="M252.11,220.05l-20.19,20.19,2.43,4,23.5-23.51A49.9,49.9,0,0,0,252.11,220.05Z"/><path class="cls-3" d="M257.85,220.7l-23.5,23.51,2.42,4,26.28-26.29A47.8,47.8,0,0,0,257.85,220.7Z"/><path class="cls-3" d="M272.2,212.74l29.49-29.49a84.34,84.34,0,0,0-9.33,2.94l-23.74,23.74Z"/><path class="cls-4" d="M275.78,215.56l34-34c-2.67.47-5.39,1-8.12,1.72L272.2,212.74Z"/><path class="cls-4" d="M263.05,221.89l-26.28,26.29,2.43,4,28.59-28.59A45.83,45.83,0,0,0,263.05,221.89Z"/><path class="cls-5" d="M267.79,223.55,239.2,252.14l2.42,4,30.51-30.5A43,43,0,0,0,267.79,223.55Z"/><path class="cls-5" d="M279.36,218.37l38-38c-2.47.33-5,.71-7.56,1.16l-34,34Z"/><path class="cls-6" d="M272.13,225.61l-30.51,30.5,1,1.62a12.58,12.58,0,0,1,5.52-1.73l27.95-27.95A41.11,41.11,0,0,0,272.13,225.61Z"/><path class="cls-6" d="M282.94,221.19l41.77-41.77-2.41.31c-1.61.2-3.26.41-4.93.64l-38,38Z"/><path class="cls-7" d="M276.67,228.45c-.19-.14-.39-.27-.59-.4L248.13,256a13.33,13.33,0,0,1,5.68.71l25.86-25.85C278.71,230,277.72,229.21,276.67,228.45Z"/><path class="cls-7" d="M286.53,224l45.64-45.65c-2.4.39-4.89.73-7.46,1.07l-41.77,41.77Z"/><path class="cls-8" d="M279.67,230.86l-25.86,25.85a7.92,7.92,0,0,1,1.81,1,2.9,2.9,0,0,1,1.37,2.26L282.9,234A41.94,41.94,0,0,0,279.67,230.86Z"/><path class="cls-8" d="M290.11,226.81l50.14-50.14c-2.58.69-5.28,1.22-8.08,1.68L286.53,224Z"/><path class="cls-9" d="M292.88,229a27.84,27.84,0,0,1,9.25-7.81L351,172.32a42.76,42.76,0,0,1-10.74,4.35l-50.14,50.14Z"/><path class="cls-9" d="M282.9,234,257,259.92a10,10,0,0,1-.31,3.4,31.28,31.28,0,0,1-1.59,4.9l30.67-30.66A38.49,38.49,0,0,0,282.9,234Z"/><path class="cls-10" d="M208.86,316.65a49.26,49.26,0,0,0-17.57,21.77l37-37A229.13,229.13,0,0,1,208.86,316.65Z"/><path class="cls-10" d="M311.89,217.82l63.41-63.41-1.57-.81a6.25,6.25,0,0,1,.34-.61c-.05.07-5,7.86-22,18.69-.35.22-.71.43-1.07.64l-48.86,48.86A39.82,39.82,0,0,1,311.89,217.82Z"/><path class="cls-10" d="M285.76,237.56l-30.67,30.66c-2.3,5.63-6.36,11.84-11.93,18.33l45.07-45.07A38,38,0,0,0,285.76,237.56Z"/><path class="cls-11" d="M319.69,216.41l59.82-59.82-4.21-2.18-63.41,63.41C314.27,217.28,316.86,216.83,319.69,216.41Z"/><path class="cls-11" d="M288.23,241.48l-45.07,45.07a151.36,151.36,0,0,1-14.89,14.89l-37,37a43.33,43.33,0,0,0-2.54,8.93l101.5-101.5A38.45,38.45,0,0,0,288.23,241.48Z"/><path class="cls-12" d="M326.85,215.44l.24,0,56.64-56.64-4.22-2.18-59.82,59.82C321.92,216.08,324.29,215.76,326.85,215.44Z"/><path class="cls-12" d="M290.25,245.85l-101.5,101.5a41,41,0,0,0-.58,7L291.79,250.71A40.37,40.37,0,0,0,290.25,245.85Z"/><path class="cls-13" d="M334.47,214.42,387.94,161l-4.21-2.18-56.64,56.64C329.5,215.1,332,214.78,334.47,214.42Z"/><path class="cls-13" d="M291.79,250.71,188.17,354.33a39.4,39.4,0,0,0,.45,5.94L292.76,256.14A40,40,0,0,0,291.79,250.71Z"/><path class="cls-14" d="M342.15,213.13l50-50L387.94,161l-53.47,53.47C337,214.05,339.56,213.63,342.15,213.13Z"/><path class="cls-14" d="M292.76,256.14,188.62,360.27a41.34,41.34,0,0,0,1.17,5.22L293,262.32A45.16,45.16,0,0,0,292.76,256.14Z"/><path class="cls-15" d="M350.49,211.19l45.88-45.88-4.21-2.18-50,50C344.9,212.6,347.69,212,350.49,211.19Z"/><path class="cls-15" d="M293,262.32,189.79,365.49a38.54,38.54,0,0,0,1.74,4.66l100.6-100.6A47.87,47.87,0,0,0,293,262.32Z"/><path class="cls-16" d="M360.22,207.86l40.37-40.37-4.22-2.18-45.88,45.88A84.8,84.8,0,0,0,360.22,207.86Z"/><path class="cls-16" d="M291.76,271.41c.14-.62.25-1.24.37-1.86l-100.6,100.6a41,41,0,0,0,2.19,4.2l96-96A64.15,64.15,0,0,0,291.76,271.41Z"/><path class="cls-17" d="M289.73,278.34l-96,96,.23.4a37.42,37.42,0,0,0,2.37,3.4l88.22-88.22A79.92,79.92,0,0,0,289.73,278.34Z"/><path class="cls-17" d="M371.39,202.05c1-.64,2-1.28,2.95-1.92l30.46-30.46-4.21-2.18-40.37,40.37A72.71,72.71,0,0,0,371.39,202.05Z"/><path class="cls-18" d="M224.61,355.88c-.94-1.53-.45-6,5-9.79a261.18,261.18,0,0,0,25.08-19.89l13.39-13.39a120.62,120.62,0,0,0,16.49-22.88l-88.22,88.22a37.41,37.41,0,0,0,3,3.41l25.47-25.48A1.51,1.51,0,0,1,224.61,355.88Z"/><path class="cls-18" d="M364.59,213l-5.11,8.38,7.07-7.07C365.68,213.68,365,213.25,364.59,213Z"/><path class="cls-18" d="M405.71,170.14l-.91-.47-30.46,30.46C397.27,184.92,404.47,172.54,405.71,170.14Z"/><path class="cls-19" d="M224.78,356.08l-25.47,25.48a37.22,37.22,0,0,0,3.37,3l27.44-27.44C227.28,357.37,225.47,356.85,224.78,356.08Z"/><path class="cls-19" d="M366.55,214.31l-7.07,7.07-10,16.39,20.6-20.6C368.71,216,367.51,215,366.55,214.31Z"/><path class="cls-19" d="M268.05,312.81,254.66,326.2A179.62,179.62,0,0,0,268.05,312.81Z"/><path class="cls-20" d="M230.12,357.14l-27.44,27.44a37.82,37.82,0,0,0,3.77,2.62l32.4-32.4A30.57,30.57,0,0,1,230.12,357.14Z"/><path class="cls-20" d="M370.09,217.17l-20.6,20.6-3.64,6a19.42,19.42,0,0,1,2,2l25.46-25.46C372.2,219.09,371.1,218.05,370.09,217.17Z"/><path class="cls-21" d="M244.14,352.28l-.43.23c-1.73.92-3.35,1.67-4.86,2.29l-32.4,32.4a40.69,40.69,0,0,0,4.19,2.21l40.74-40.75Z"/><path class="cls-21" d="M373.36,220.29,347.9,245.75a41.07,41.07,0,0,1,2.87,3.53l25.65-25.65Q374.83,221.79,373.36,220.29Z"/><path class="cls-22" d="M257.09,345.81l-5.71,2.85-40.74,40.75a41.34,41.34,0,0,0,4.63,1.76l43.4-43.4Z"/><path class="cls-22" d="M376.42,223.63l-25.65,25.65c.8,1.1,1.66,2.37,2.55,3.84l25.95-26Q377.82,225.27,376.42,223.63Z"/><path class="cls-23" d="M258.67,347.77l-43.4,43.4c.69.22,1.39.42,2.1.61-1.17,2.3-2.34,4.71-3.5,7.19l47.66-47.67Z"/><path class="cls-23" d="M379.27,227.17l-25.95,26c.75,1.23,1.51,2.62,2.27,4.12l26.34-26.33C381,229.58,380.14,228.34,379.27,227.17Z"/><path class="cls-24" d="M381.93,230.91l-26.34,26.33c.55,1.09,1.1,2.23,1.64,3.46l.39.91,26.79-26.79Q383.17,232.75,381.93,230.91Z"/><path class="cls-24" d="M261.53,351.3,213.87,399c-1.56,3.31-3.11,6.74-4.61,10.31l-.47,1.16,55.6-55.6Z"/><path class="cls-25" d="M264.39,354.84l-55.6,55.6c-1.46,3.53-2.82,7-4,10.45l62.51-62.52Z"/><path class="cls-25" d="M384.41,234.82l-26.79,26.79q.9,2.14,1.77,4.62l27.33-27.33C386,237.47,385.18,236.11,384.41,234.82Z"/><path class="cls-26" d="M386.72,238.9l-27.33,27.33q.81,2.28,1.55,4.84l27.93-27.92C388.16,241.67,387.44,240.26,386.72,238.9Z"/><path class="cls-26" d="M267.25,358.37l-62.51,62.52c-1.17,3.24-2.24,6.43-3.21,9.6l68.58-68.58Z"/><path class="cls-27" d="M270.11,361.91l-68.58,68.58q-1.38,4.5-2.5,8.89L273,365.44Z"/><path class="cls-27" d="M388.87,243.15l-27.93,27.92q.71,2.4,1.34,5.07l28.56-28.57C390.19,246,389.54,244.56,388.87,243.15Z"/><path class="cls-28" d="M390.84,247.57l-28.56,28.57c.39,1.67.77,3.43,1.12,5.27l29.25-29.26Q391.77,249.78,390.84,247.57Z"/><path class="cls-28" d="M275.3,368.33,273,365.44,199,439.38q-1.07,4.2-1.89,8.29L270.6,374.2Z"/><path class="cls-29" d="M266.54,379.28l4.06-5.08-73.46,73.47q-.79,3.93-1.38,7.77l61.17-61.17C260.49,388.17,263.84,383,266.54,379.28Z"/><path class="cls-29" d="M392.65,252.15,363.4,281.41q.5,2.63.91,5.48l30-30Q393.5,254.45,392.65,252.15Z"/><path class="cls-30" d="M256.93,394.27l-61.17,61.17q-.54,3.68-.89,7.28l54.51-54.51C251.91,403.18,254.47,398.49,256.93,394.27Z"/><path class="cls-30" d="M394.31,256.89l-30,30c.26,1.83.5,3.72.7,5.69L395.8,261.8C395.32,260.11,394.82,258.48,394.31,256.89Z"/><path class="cls-31" d="M249.38,408.21l-54.51,54.51q-.33,3.48-.47,6.87l49.37-49.37C245.58,416.06,247.47,412,249.38,408.21Z"/><path class="cls-31" d="M395.8,261.8,365,292.58q.3,2.85.51,5.89l31.61-31.61C396.71,265.12,396.26,263.43,395.8,261.8Z"/><path class="cls-32" d="M243.77,420.22,194.4,469.59q-.15,3.29-.1,6.5l45.18-45.18C240.82,427.27,242.27,423.69,243.77,420.22Z"/><path class="cls-32" d="M397.13,266.86l-31.61,31.61q.19,3,.3,6.1l32.48-32.48C397.93,270.3,397.54,268.55,397.13,266.86Z"/><path class="cls-33" d="M239.48,430.91,194.3,476.09q0,3.11.24,6.15l41.65-41.65C237.19,437.32,238.3,434.09,239.48,430.91Z"/><path class="cls-33" d="M398.3,272.09l-32.48,32.48c.06,2,.1,4.13.1,6.29l33.39-33.39C399,275.63,398.66,273.83,398.3,272.09Z"/><path class="cls-34" d="M399.31,277.47l-33.39,33.39c0,2.11,0,4.27-.11,6.5L400.15,283C399.9,281.12,399.61,279.28,399.31,277.47Z"/><path class="cls-34" d="M236.19,440.59l-41.65,41.65q.19,3,.55,5.84l38.66-38.66C234.47,446.46,235.29,443.51,236.19,440.59Z"/><path class="cls-35" d="M233.75,449.42l-38.66,38.66c.23,1.87.51,3.73.84,5.56L232,457.53C232.52,454.83,233.1,452.12,233.75,449.42Z"/><path class="cls-35" d="M400.15,283l-34.34,34.34c-.07,2.17-.17,4.41-.3,6.7l35.33-35.34C400.64,286.77,400.41,284.88,400.15,283Z"/><path class="cls-36" d="M232,457.53l-36.11,36.11c.32,1.78.68,3.55,1.1,5.29L231,465Q231.36,461.28,232,457.53Z"/><path class="cls-36" d="M400.84,288.72l-35.33,35.34c-.14,2.24-.3,4.54-.51,6.9l36.36-36.36Q401.14,291.6,400.84,288.72Z"/><path class="cls-37" d="M401.36,294.6,365,331q-.3,3.48-.72,7.11l37.43-37.43C401.62,298.59,401.5,296.57,401.36,294.6Z"/><path class="cls-37" d="M231,465,197,498.93q.61,2.55,1.36,5l32.06-32.07Q230.58,468.48,231,465Z"/><path class="cls-38" d="M230.45,471.9,198.39,504c.48,1.62,1,3.22,1.59,4.8l30.49-30.49C230.38,476.18,230.38,474.05,230.45,471.9Z"/><path class="cls-38" d="M401.71,300.64l-37.43,37.43q-.4,3.58-.93,7.33l38.55-38.55C401.87,304.73,401.8,302.67,401.71,300.64Z"/><path class="cls-39" d="M230.47,478.28,200,508.77c.46,1.28.94,2.56,1.45,3.81.11.27.23.52.35.79L231,484.19Q230.59,481.28,230.47,478.28Z"/><path class="cls-39" d="M401.9,306.85,363.35,345.4c-.28,2-.58,4.06-.91,6.15-.07.46-.13.9-.2,1.35l39.67-39.67C401.94,311.06,401.93,308.93,401.9,306.85Z"/><path class="cls-40" d="M231,484.19l-29.17,29.18q.94,2.24,2,4.39l28.1-28.1C231.49,487.86,231.19,486,231,484.19Z"/><path class="cls-40" d="M401.91,313.23,362.24,352.9q-.57,3.77-1,7.41l40.53-40.54C401.85,317.55,401.89,315.37,401.91,313.23Z"/><path class="cls-41" d="M401.76,319.77l-40.53,40.54q-.42,3.6-.7,7.1l40.9-40.9Q401.64,323.08,401.76,319.77Z"/><path class="cls-41" d="M231.88,489.66l-28.1,28.1c.7,1.42,1.42,2.83,2.19,4.21l27.25-27.26C232.7,493.06,232.25,491.37,231.88,489.66Z"/><path class="cls-42" d="M234.72,498.86c-.56-1.36-1.06-2.74-1.5-4.15L206,522c.75,1.36,1.56,2.68,2.39,4L235,499.38C234.87,499.21,234.79,499,234.72,498.86Z"/><path class="cls-42" d="M401.43,326.51l-40.9,40.9q-.28,3.46-.43,6.81l40.82-40.82C401.12,331.06,401.29,328.77,401.43,326.51Z"/><path class="cls-43" d="M235,499.38,208.36,526c.82,1.3,1.67,2.57,2.56,3.83L237,503.69C236.27,502.29,235.57,500.85,235,499.38Z"/><path class="cls-43" d="M400.92,333.4,360.1,374.22c-.09,2.22-.15,4.41-.15,6.55l40.28-40.28C400.49,338.09,400.73,335.72,400.92,333.4Z"/><path class="cls-44" d="M400.23,340.49,360,380.77c0,2.13,0,4.23.11,6.28l39.3-39.3C399.69,345.29,400,342.87,400.23,340.49Z"/><path class="cls-44" d="M237,503.69,210.92,529.8c.88,1.24,1.78,2.47,2.73,3.67l25.8-25.8C238.58,506.37,237.77,505.05,237,503.69Z"/><path class="cls-45" d="M399.36,347.75l-39.3,39.3q.13,3.06.4,6l37.84-37.84C398.68,352.69,399,350.2,399.36,347.75Z"/><path class="cls-45" d="M239.45,507.67l-25.8,25.8c.94,1.18,1.92,2.33,2.92,3.47l25.59-25.59C241.2,510.15,240.29,508.92,239.45,507.67Z"/><path class="cls-46" d="M398,357.18c.11-.66.2-1.31.3-2l-37.84,37.84q.26,2.94.64,5.75l36.11-36.11Q397.56,360,398,357.18Z"/><path class="cls-46" d="M242.16,511.35l-25.59,25.59q1.49,1.69,3.07,3.33l25.51-25.52Q243.58,513.09,242.16,511.35Z"/><path class="cls-47" d="M245.15,514.75l-25.51,25.52q1.56,1.62,3.22,3.17L248.4,517.9Q246.69,516.37,245.15,514.75Z"/><path class="cls-47" d="M397.21,362.69,361.1,398.8c.26,1.87.55,3.71.9,5.5l34.45-34.45C396.65,367.52,396.9,365.14,397.21,362.69Z"/><path class="cls-48" d="M248.4,517.9l-25.54,25.54c1.09,1,2.22,2,3.37,3l25.64-25.63Q250.06,519.41,248.4,517.9Z"/><path class="cls-48" d="M396.45,369.85,362,404.3c.34,1.78.74,3.52,1.17,5.22L396,376.66C396.11,374.46,396.25,372.18,396.45,369.85Z"/><path class="cls-49" d="M251.87,520.83l-25.64,25.63q1.72,1.47,3.54,2.86l25.79-25.8Q253.64,522.21,251.87,520.83Z"/><path class="cls-49" d="M396,376.66l-32.86,32.86.27,1.1c.35,1.32.74,2.61,1.15,3.88L396,383.12Q395.91,380,396,376.66Z"/><path class="cls-50" d="M396,383.12,364.59,414.5q.77,2.43,1.67,4.72l30-30C396.1,387.27,396,385.23,396,383.12Z"/><path class="cls-50" d="M255.56,523.52l-25.79,25.8q1.78,1.39,3.67,2.73l26-26Q257.45,524.81,255.56,523.52Z"/><path class="cls-51" d="M396.25,389.23l-30,30c.6,1.53,1.23,3,1.92,4.48L396.9,395C396.62,393.14,396.41,391.22,396.25,389.23Z"/><path class="cls-51" d="M259.46,526l-26,26c1.24.88,2.5,1.74,3.8,2.59l26.31-26.31Q261.43,527.21,259.46,526Z"/><path class="cls-52" d="M396.9,395,368.18,423.7c.68,1.45,1.41,2.86,2.17,4.22L398,400.32Q397.33,397.79,396.9,395Z"/><path class="cls-52" d="M263.55,528.33l-26.31,26.31q1.94,1.25,3.94,2.45l26.63-26.63C266.34,529.77,264.93,529.06,263.55,528.33Z"/><path class="cls-53" d="M267.81,530.46l-26.63,26.63c1.33.79,2.7,1.56,4.09,2.31l27-27C270.73,531.78,269.25,531.14,267.81,530.46Z"/><path class="cls-53" d="M370.35,427.92c.76,1.37,1.57,2.7,2.41,4l26.67-26.66a45.93,45.93,0,0,1-1.47-4.92Z"/><path class="cls-54" d="M272.25,532.42l-27,27c1.37.75,2.78,1.47,4.21,2.18l27.36-27.36Q274.49,533.35,272.25,532.42Z"/><path class="cls-54" d="M375.43,435.63l25.95-25.95a34.91,34.91,0,0,1-1.95-4.44L372.76,431.9Q374,433.84,375.43,435.63Z"/><path class="cls-55" d="M378.35,439.11l25.52-25.53a25,25,0,0,1-2.49-3.9l-25.95,25.95C376.36,436.83,377.34,438,378.35,439.11Z"/><path class="cls-55" d="M276.84,534.22l-27.36,27.36c1.41.71,2.86,1.4,4.33,2.07l27.77-27.78C280,535.34,278.39,534.79,276.84,534.22Z"/><path class="cls-56" d="M281.58,535.87l-27.77,27.78q2.19,1,4.45,1.94l28.21-28.21C284.81,536.89,283.17,536.39,281.58,535.87Z"/><path class="cls-56" d="M381.53,442.32l25.5-25.5a19.45,19.45,0,0,1-3.16-3.24l-25.52,25.53Q379.88,440.79,381.53,442.32Z"/><path class="cls-57" d="M286.47,537.38l-28.21,28.21c1.5.62,3,1.24,4.57,1.82l28.66-28.66Q288.92,538.09,286.47,537.38Z"/><path class="cls-57" d="M385,445.27,411,419.2a15.24,15.24,0,0,1-1.77-.85,15.84,15.84,0,0,1-2.24-1.53l-25.5,25.5Q383.2,443.88,385,445.27Z"/><path class="cls-58" d="M291.49,538.75l-28.66,28.66c1.54.59,3.11,1.15,4.69,1.7L296.65,540C294.9,539.59,293.17,539.19,291.49,538.75Z"/><path class="cls-58" d="M388.69,447.94l27.38-27.37a21.93,21.93,0,0,1-5-1.37L385,445.27C386.18,446.21,387.41,447.11,388.69,447.94Z"/><path class="cls-59" d="M296.65,540l-29.13,29.12c1.58.55,3.19,1.07,4.81,1.59l29.59-29.59C300.13,540.76,298.38,540.38,296.65,540Z"/><path class="cls-59" d="M391.55,449.69c.38.22.77.42,1.16.63l29.47-29.46a33.88,33.88,0,0,1-6.11-.29l-27.38,27.37C389.63,448.55,390.57,449.14,391.55,449.69Z"/><path class="cls-60" d="M397,452.4,429.44,420a49.22,49.22,0,0,1-7.26.87l-29.47,29.46Q394.83,451.46,397,452.4Z"/><path class="cls-60" d="M301.92,541.11,272.33,570.7q2.43.76,4.92,1.47l30.07-30.07Q304.58,541.64,301.92,541.11Z"/><path class="cls-61" d="M401.68,454.14l36.48-36.48a69.67,69.67,0,0,1-8.72,2.33L397,452.4Q399.31,453.38,401.68,454.14Z"/><path class="cls-61" d="M309.21,542.43l-1.89-.33-30.07,30.07c1.66.47,3.33.93,5,1.37l26.11-26.11Z"/><path class="cls-62" d="M406.69,455.52l42.15-42.14a99,99,0,0,1-10.68,4.28l-36.48,36.48C403.32,454.68,405,455.13,406.69,455.52Z"/><path class="cls-62" d="M308.39,547.43l-26.11,26.11q2.54.65,5.14,1.26l19.72-19.73Z"/><path class="cls-63" d="M307.14,555.07,287.42,574.8c1.72.4,3.46.79,5.24,1.15l13.23-13.23Z"/><path class="cls-63" d="M412.12,456.49l50.56-50.56a145.21,145.21,0,0,1-13.84,7.45l-42.15,42.14C408.47,455.92,410.28,456.25,412.12,456.49Z"/><path class="cls-64" d="M305.89,562.72,292.66,576q2.63.56,5.34,1.06l6.64-6.64Z"/><path class="cls-64" d="M418,457,484,391.06a217.29,217.29,0,0,1-21.27,14.87l-50.56,50.56C414.05,456.75,416,456.91,418,457Z"/><path class="cls-65" d="M304.64,570.37,298,577q2.65.5,5.39.94Z"/><path class="cls-65" d="M420.76,457.05c1.22,0,2.45,0,3.69-.1L539.81,341.59a197.66,197.66,0,0,0-24.38,21.12C507.22,371,499,378.6,491.05,385.29q-3.62,3-7.1,5.77L418,457C418.92,457,419.84,457.05,420.76,457.05Z"/><path class="cls-66" d="M431.52,456.27,557.08,330.71a149.79,149.79,0,0,0-17.27,10.88L424.45,457C426.77,456.83,429.12,456.61,431.52,456.27Z"/><path class="cls-67" d="M439.38,454.81,569.19,325a126.22,126.22,0,0,0-12.11,5.72L431.52,456.27Q435.39,455.73,439.38,454.81Z"/><path class="cls-68" d="M448.24,452.35,579.11,321.47q-5,1.51-9.92,3.52L439.38,454.81C442.28,454.14,445.24,453.31,448.24,452.35Z"/><path class="cls-68" d="M343.1,557.48l22.81-22.81A160.18,160.18,0,0,0,343.1,557.48Z"/><path class="cls-69" d="M458.4,448.57,587.76,319.22q-4.34.93-8.65,2.25L448.24,452.35C451.57,451.27,455,450,458.4,448.57Z"/><path class="cls-69" d="M365.91,534.67,343.1,557.48c-1.18,1.47-2.32,2.95-3.43,4.47A110.44,110.44,0,0,0,331,576L390,517A278.91,278.91,0,0,0,365.91,534.67Z"/><path class="cls-70" d="M470.5,442.87l125-125q-3.9.54-7.77,1.38L458.4,448.57Q464.36,446.08,470.5,442.87Z"/><path class="cls-70" d="M390,517,331,576a101.3,101.3,0,0,0-5.07,11.47L407.4,506C401.61,509.5,395.77,513.15,390,517Z"/><path class="cls-71" d="M422.25,497.07c-4.87,2.89-9.84,5.85-14.85,8.9l-81.51,81.51a97.18,97.18,0,0,0-2.9,9.3L423.34,496.42Z"/><path class="cls-71" d="M485.85,433.91l116.8-116.8q-3.57.24-7.12.73l-125,125Q478,438.93,485.85,433.91Z"/><path class="cls-72" d="M423.34,496.42,323,596.78c-.69,2.68-1.28,5.39-1.74,8.13L439.39,486.77C434.2,490,428.81,493.17,423.34,496.42Z"/><path class="cls-72" d="M509.17,417l100.1-100.1c-2.21,0-4.42.08-6.62.22l-116.8,116.8A269,269,0,0,0,509.17,417Z"/><path class="cls-73" d="M514.2,412.86C523,405.46,532,397.11,541,388a155.37,155.37,0,0,1,22.82-19.31l51.65-51.66c-2.07-.12-4.15-.18-6.22-.17L509.17,417C510.84,415.64,512.52,414.27,514.2,412.86Z"/><path class="cls-73" d="M439.39,486.77,321.25,604.91q-.62,3.65-1,7.36L458,474.58C452.28,478.65,446,482.7,439.39,486.77Z"/><path class="cls-74" d="M478,457c-5,6-11.94,11.86-20,17.62L320.28,612.27c-.21,2.25-.34,4.52-.41,6.8L480.16,458.79Z"/><path class="cls-74" d="M578.82,360.12l42.55-42.55c-1.15-.13-2.31-.26-3.48-.35-.8-.07-1.6-.11-2.4-.16l-51.65,51.66A105.47,105.47,0,0,1,578.82,360.12Z"/><path class="cls-75" d="M589.27,356.08,627,318.38c-1.84-.31-3.7-.59-5.59-.81l-42.55,42.55A82.22,82.22,0,0,1,589.27,356.08Z"/><path class="cls-75" d="M480.16,458.79,319.87,619.07c-.05,2.12-.06,4.24,0,6.39L483.64,461.7Z"/><path class="cls-75" d="M499.19,439.8l3,3.37,22.63-22.63A203.14,203.14,0,0,0,499.19,439.8Z"/><path class="cls-76" d="M524.8,420.54l-22.63,22.63,3,3.4,34.43-34.42C534.63,414.64,529.7,417.45,524.8,420.54Z"/><path class="cls-76" d="M391.65,560.08l95.48-95.47-3.49-2.91L319.88,625.46q.09,3,.35,6l49.09-49.08C375.31,574.37,383,567,391.65,560.08Z"/><path class="cls-76" d="M597.75,354l34.54-34.54c-1.75-.4-3.53-.75-5.33-1.07l-37.69,37.7A71.31,71.31,0,0,1,597.75,354Z"/><path class="cls-77" d="M413.59,544.54l77-77-3.49-2.9-95.48,95.47C398.46,554.66,405.88,549.51,413.59,544.54Z"/><path class="cls-77" d="M539.59,412.15l-34.43,34.42,3,3.4,43.12-43.12Q545.43,409.22,539.59,412.15Z"/><path class="cls-77" d="M368.77,583.14l.55-.72L320.23,631.5c.16,1.91.38,3.83.64,5.76l39.6-39.6A70.93,70.93,0,0,1,368.77,583.14Z"/><path class="cls-77" d="M605.08,353.05l32.31-32.31q-2.52-.71-5.1-1.29L597.75,354A68.35,68.35,0,0,1,605.08,353.05Z"/><path class="cls-78" d="M551.28,406.85,508.16,450l3,3.4,50.17-50.17Q556.31,404.82,551.28,406.85Z"/><path class="cls-78" d="M611.61,352.92l30.68-30.68q-2.41-.81-4.9-1.5l-32.31,32.31A64.75,64.75,0,0,1,611.61,352.92Z"/><path class="cls-78" d="M430.4,534.13l63.71-63.71-3.49-2.91-77,77C419.08,541,424.72,537.54,430.4,534.13Z"/><path class="cls-78" d="M360.47,597.66l-39.6,39.6c.24,1.83.53,3.68.86,5.53l35.72-35.71A60.5,60.5,0,0,1,360.47,597.66Z"/><path class="cls-79" d="M614.71,353.08c.95.07,1.89.18,2.83.3L647,323.92q-2.32-.89-4.71-1.68l-30.68,30.68C612.64,353,613.68,353,614.71,353.08Z"/><path class="cls-79" d="M561.32,403.2l-50.17,50.17,3,3.4,56.08-56.08C567.27,401.42,564.3,402.25,561.32,403.2Z"/><path class="cls-79" d="M440.64,528l5.58-3.32,51.37-51.37-3.48-2.91L430.4,534.13Q435.52,531.06,440.64,528Z"/><path class="cls-79" d="M357.45,607.08l-35.72,35.71c.32,1.77.66,3.55,1.06,5.34l33.36-33.36A62.52,62.52,0,0,1,357.45,607.08Z"/><path class="cls-80" d="M623,354.29l28.53-28.53q-2.24-1-4.55-1.84l-29.46,29.46C619.4,353.61,621.22,353.92,623,354.29Z"/><path class="cls-80" d="M570.23,400.69l-56.08,56.08,3,3.4L578.33,399Q574.29,399.69,570.23,400.69Z"/><path class="cls-80" d="M356.15,614.77l-33.36,33.36c.38,1.7.8,3.42,1.25,5.14l31.73-31.73C355.79,619.18,355.92,616.93,356.15,614.77Z"/><path class="cls-80" d="M462.57,514.74l38.51-38.51-3.49-2.9L446.22,524.7C451.79,521.38,457.26,518.08,462.57,514.74Z"/><path class="cls-81" d="M628.16,355.55l27.78-27.79c-1.44-.69-2.9-1.35-4.39-2L623,354.29C624.76,354.65,626.48,355.07,628.16,355.55Z"/><path class="cls-81" d="M355.77,621.54,324,653.27c.44,1.66.9,3.32,1.4,5L356,627.71Q355.76,624.52,355.77,621.54Z"/><path class="cls-81" d="M482.4,501.31l22.17-22.17-3.49-2.91-38.51,38.51C469.54,510.37,476.2,505.93,482.4,501.31Z"/><path class="cls-81" d="M578.33,399l-61.19,61.18,3,3.4,65.66-65.65Q582.09,398.33,578.33,399Z"/><path class="cls-82" d="M356,627.71l-30.56,30.56q.72,2.41,1.53,4.86l29.67-29.67C356.35,631.48,356.14,629.57,356,627.71Z"/><path class="cls-82" d="M505.61,480l-1-.87L482.4,501.31A134.74,134.74,0,0,0,505.61,480Z"/><path class="cls-82" d="M585.79,397.92l-65.66,65.65,2.86,3.24c.72-.64,1.45-1.26,2.18-1.88L592.7,397.4Q589.26,397.55,585.79,397.92Z"/><path class="cls-82" d="M633,357.13,660.2,329.9q-2.09-1.09-4.26-2.14l-27.78,27.79C629.8,356,631.4,356.55,633,357.13Z"/><path class="cls-83" d="M356.64,633.46,327,663.13q.79,2.36,1.66,4.74l29-29C357.23,637,356.9,635.22,356.64,633.46Z"/><path class="cls-83" d="M592.7,397.4l-67.53,67.53a160.14,160.14,0,0,1,22.61-16.21l51.4-51.4C597,397.28,594.88,397.3,592.7,397.4Z"/><path class="cls-83" d="M637.56,358.94l26.76-26.77c-1.34-.77-2.72-1.53-4.12-2.27L633,357.13Q635.3,358,637.56,358.94Z"/><path class="cls-84" d="M599.18,397.32l-51.4,51.4A132,132,0,0,1,561,441.89l44.29-44.29Q602.26,397.36,599.18,397.32Z"/><path class="cls-84" d="M641.91,361l26.42-26.42c-1.31-.81-2.64-1.61-4-2.39l-26.76,26.77C639,359.58,640.49,360.27,641.91,361Z"/><path class="cls-84" d="M357.61,638.89l-29,29q.84,2.31,1.76,4.63l28.43-28.43Q358.13,641.42,357.61,638.89Z"/><path class="cls-85" d="M605.29,397.6,561,441.89a111.63,111.63,0,0,1,10.47-4.07L611,398.25Q608.18,397.85,605.29,397.6Z"/><path class="cls-85" d="M646.08,363.21l26.14-26.14c-1.27-.85-2.57-1.68-3.89-2.51L641.91,361Q644,362.06,646.08,363.21Z"/><path class="cls-85" d="M358.82,644.07,330.39,672.5q.9,2.25,1.87,4.52l28-28C359.72,647.35,359.25,645.69,358.82,644.07Z"/><path class="cls-86" d="M650.07,365.61,676,339.69c-1.23-.88-2.48-1.76-3.77-2.62l-26.14,26.14Q648.12,364.38,650.07,365.61Z"/><path class="cls-86" d="M611,398.25l-39.56,39.57c3-1,5.94-1.81,8.87-2.48l36.15-36.15Q613.79,398.64,611,398.25Z"/><path class="cls-86" d="M360.25,649l-28,28c.59,1.36,1.19,2.73,1.82,4.1l.88-.4,26.87-26.87C361.25,652.21,360.73,650.61,360.25,649Z"/><path class="cls-87" d="M616.49,399.19l-36.15,36.15q3.95-.9,7.78-1.39l33.55-33.54Q619.11,399.72,616.49,399.19Z"/><path class="cls-87" d="M361.83,653.85,335,680.72l11.74-5.35,16.87-16.87Q362.64,656.13,361.83,653.85Z"/><path class="cls-87" d="M653.91,368.16l25.76-25.75q-1.78-1.37-3.68-2.72l-25.92,25.92C651.39,366.44,652.67,367.3,653.91,368.16Z"/><path class="cls-88" d="M363.57,658.5,346.7,675.37,358.45,670l7-7C364.78,661.5,364.15,660,363.57,658.5Z"/><path class="cls-88" d="M621.67,400.41,588.12,434q3.55-.46,7-.59l31.48-31.48Q624.15,401.07,621.67,400.41Z"/><path class="cls-88" d="M657.61,370.86l25.64-25.64q-1.74-1.41-3.58-2.81l-25.76,25.75C655.18,369.05,656.42,370,657.61,370.86Z"/><path class="cls-89" d="M365.44,663l-7,7,8.39-3.82C366.35,665.13,365.89,664.08,365.44,663Z"/><path class="cls-89" d="M628.26,402.43l-1.67-.55-31.48,31.48c2.14-.08,4.24,0,6.31.08l29.87-29.86C630.27,403.17,629.26,402.79,628.26,402.43Z"/><path class="cls-89" d="M661.18,373.69l25.55-25.55c-1.12-1-2.29-1.94-3.48-2.92l-25.64,25.64Q659.46,372.27,661.18,373.69Z"/><path class="cls-90" d="M631.29,403.58l-29.87,29.86c2,.13,3.87.34,5.75.65l28.59-28.6Q633.5,404.46,631.29,403.58Z"/><path class="cls-90" d="M664.62,376.64l25.5-25.5q-1.64-1.49-3.39-3l-25.55,25.55C662.38,374.68,663.52,375.66,664.62,376.64Z"/><path class="cls-91" d="M635.76,405.49l-28.59,28.6a53.54,53.54,0,0,1,5.27,1.12l27.6-27.6C638.6,406.85,637.18,406.15,635.76,405.49Z"/><path class="cls-91" d="M667.94,379.71l25.47-25.47q-1.57-1.53-3.29-3.1l-25.5,25.5C665.79,377.68,666.9,378.71,667.94,379.71Z"/><path class="cls-92" d="M640,407.61l-27.6,27.6c1.29.34,2.57.72,3.82,1.16l1,.4,26.83-26.83Q642.07,408.7,640,407.61Z"/><path class="cls-92" d="M671.15,382.89l25.47-25.47q-1.51-1.55-3.21-3.18l-25.47,25.47Q669.67,381.36,671.15,382.89Z"/><path class="cls-93" d="M644.11,409.94l-26.83,26.83a45.62,45.62,0,0,1,4.45,1.94L648,412.44C646.7,411.55,645.41,410.72,644.11,409.94Z"/><path class="cls-93" d="M674.25,386.19l25.49-25.49q-1.46-1.57-3.12-3.28l-25.47,25.47C672.29,384.06,673.32,385.17,674.25,386.19Z"/><path class="cls-94" d="M648,412.44l-26.27,26.27q2.13,1.05,4.11,2.28l25.88-25.87Q649.86,413.7,648,412.44Z"/><path class="cls-94" d="M677.22,389.61l25.55-25.54c-.92-1.05-1.93-2.18-3-3.37l-25.49,25.49C675.42,387.49,676.42,388.64,677.22,389.61Z"/><path class="cls-95" d="M679.73,392.78l2.49-1.77,23.47-23.47c-.83-1-1.8-2.19-2.92-3.47l-25.55,25.54C678.81,391.52,679.69,392.72,679.73,392.78Z"/><path class="cls-95" d="M651.72,415.12,625.84,441c1.31.82,2.56,1.7,3.78,2.62L655.26,418C654.09,417,652.9,416,651.72,415.12Z"/><path class="cls-96" d="M655.26,418l-25.64,25.64c1.21.92,2.36,1.9,3.48,2.91L658.64,421Q657,419.41,655.26,418Z"/><path class="cls-96" d="M694.39,382.33l9.93-7,4.18-4.18c-.57-.76-1.51-2-2.81-3.59L682.22,391Z"/><path class="cls-97" d="M658.64,421,633.1,446.52q1.68,1.53,3.22,3.18l25.54-25.54C660.8,423.05,659.72,422,658.64,421Z"/><path class="cls-97" d="M709.08,371.93l-.58-.8-4.18,4.18Z"/><path class="cls-98" d="M639.29,453.12l25.62-25.62c-1-1.15-2-2.28-3-3.34L636.32,449.7Q637.87,451.35,639.29,453.12Z"/><path class="cls-99" d="M642,456.78,667.82,431q-1.44-1.82-2.91-3.49l-25.62,25.62C640.24,454.3,641.16,455.52,642,456.78Z"/><path class="cls-100" d="M644.54,460.66l26-26c-.9-1.26-1.83-2.46-2.76-3.63L642,456.78C642.91,458,643.74,459.34,644.54,460.66Z"/><path class="cls-101" d="M646.85,464.75l26.34-26.34c-.86-1.31-1.72-2.57-2.61-3.79l-26,26Q645.76,462.67,646.85,464.75Z"/><path class="cls-102" d="M649,469l26.69-26.69q-1.21-2-2.46-3.93l-26.34,26.34C647.59,466.15,648.3,467.58,649,469Z"/><path class="cls-103" d="M650.89,473.49,678,446.41q-1.14-2.09-2.32-4.07L649,469C649.64,470.5,650.29,472,650.89,473.49Z"/><path class="cls-104" d="M652.64,478.14l27.51-27.52q-1.06-2.16-2.18-4.21l-27.08,27.08Q651.82,475.8,652.64,478.14Z"/><path class="cls-105" d="M654.22,483l28-28c-.66-1.49-1.35-2.93-2.05-4.35l-27.51,27.52C653.2,479.74,653.73,481.35,654.22,483Z"/><path class="cls-106" d="M655.63,487.94l28.49-28.49c-.63-1.53-1.26-3-1.92-4.48l-28,28Q655,485.46,655.63,487.94Z"/><path class="cls-107" d="M656.88,493.08l29-29q-.87-2.37-1.78-4.62l-28.49,28.49C656.08,489.66,656.5,491.38,656.88,493.08Z"/><path class="cls-108" d="M658,498.38l29.56-29.57q-.79-2.43-1.64-4.74l-29,29Q657.48,495.77,658,498.38Z"/><path class="cls-109" d="M658.49,501.24l3.65-.62,26.92-26.93c-.49-1.66-1-3.29-1.52-4.88L658,498.38C658.16,499.34,658.33,500.29,658.49,501.24Z"/><path class="cls-110" d="M669.84,499.3l20.61-20.6q-.68-2.56-1.39-5l-26.92,26.93Z"/><path class="cls-111" d="M677.55,498l14.16-14.16q-.6-2.62-1.26-5.13l-20.61,20.6Z"/><path class="cls-112" d="M685.26,496.67l7.58-7.58q-.54-2.68-1.13-5.26L677.55,498Z"/><path class="cls-113" d="M693,495.36l.88-.88c-.32-1.83-.65-3.63-1-5.39l-7.58,7.58Z"/><path class="cls-114" d="M694,495.19c0-.24-.09-.47-.13-.71l-.88.88Z"/></svg>