<svg id="レイヤー_1" data-name="レイヤー 1" xmlns="http://www.w3.org/2000/svg" viewBox="0 0 800 800"><defs><style>.cls-1{fill:#e8e8e8;}</style></defs><title>アートボード 4</title><path class="cls-1" d="M362.36,523.58c-41.66,24.75-88.88,52.8-117.87,92.61-34.89,47.91-37.58,105.14-8,170.1L283.27,765C254.44,701.71,271,667,286,646.44c22.78-31.28,63.34-55.38,102.58-78.68,36.28-21.56,70.56-41.92,92.74-68.54l-39.48-32.89C425.34,486.17,394.75,504.34,362.36,523.58Z"/><path class="cls-1" d="M226.19,121.58c19.67-2.51,42-5.35,63.57-19.1,36.08-23,47.14-42,49-45.56l-45.64-23.6a6.9,6.9,0,0,1,.48-.87c-.07.11-7.13,11.23-31.42,26.68-11.91,7.58-26.08,9.39-42.48,11.48-25.8,3.29-57.9,7.39-82.4,38.57l40.41,31.75C188.67,127,201.87,124.69,226.19,121.58Z"/><path class="cls-1" d="M94.69,526.14C71.44,469.76,119.85,383.46,140.46,355l11.77-16.49-26.12-30.55-18,9-.61.32c-16.08,8.59-25.69,7.37-27.27,4.81-1.34-2.18-.64-8.52,7.1-14,63.31-44.55,83.21-82.55,88.75-106.59,5.68-24.58-2.37-47.5-21.54-61.32-21.28-15.34-52.3-16.19-75.41-2.06L106,182c6-3.7,14.49-3,18.57-.1,1.15.83,2.9,2.09,1.52,8.08-4.85,21-30.37,49.45-68.26,76.12C29,286.3,19.85,322,36.5,349a54.41,54.41,0,0,0,33.42,24.29c-3.89,7.7-7.83,16.08-11.57,25-24.09,57.39-27.85,107-11.17,147.46,20.38,49.42,69.34,80.82,145.53,93.3L201,588.32C143.59,578.91,107.82,558,94.69,526.14Z"/><path class="cls-1" d="M641.61,266.86c-50.32-4.14-99.52,17.71-146.25,64.93-11.72,11.84-23.42,22.69-34.79,32.23C401.1,414,360.52,420.66,343.84,411.22c-17.2-9.72-23.21-42.36-16.09-87.31,24.81-156.64-40.19-201.24-47.69-205.81L253.31,162c.08,0,8.75,7.08,16.24,24.21,9.37,21.44,18.27,61.34,7.44,129.68-5.2,32.83-4.72,61.2,1.43,84.31,6.77,25.47,20.65,44.76,40.12,55.77,12.44,7,26.42,10.51,41.7,10.51,37.93,0,83.78-21.45,133.37-63.09,12.57-10.55,25.45-22.47,38.27-35.44,35.44-35.8,70.84-52.59,105.19-49.88,54.59,4.3,92.44,56.15,92.82,56.67l20.92-14.92,21-14.84C769.71,342,720.23,273.33,641.61,266.86Z"/><path class="cls-1" d="M656.42,388.5c-55.26-19.55-124.13.39-184.23,53.33l34,38.56c45.24-39.84,96.25-56.49,133.14-43.45,39.13,13.84,54.38,58,60.27,92.59l50.66-8.64C735.34,433.62,691,400.73,656.42,388.5Z"/></svg>